<svg id="Layer_1" data-name="Layer 1" xmlns="http://www.w3.org/2000/svg" viewBox="0 0 1080 1080"><defs><style>.cls-1{fill:#1c3f88;}</style></defs><path class="cls-1" d="M376.52,576.8c19-4.26,37.42-8.76,56.41-13.26-4.66-3.1-11-7.6-19.76-13a38.77,38.77,0,0,1-18.31-33V340.9a41.52,41.52,0,0,1,32-40.5c46.24-10.85,129.69-30.47,161-37.85a38.12,38.12,0,0,0,29.39-37.13V170.77C546,187.49,406,220.72,343.67,235.48A40.51,40.51,0,0,0,312.48,275v248.9a43.45,43.45,0,0,0,20.25,36.68l19.78,12.58A29.29,29.29,0,0,0,376.52,576.8Z"/><path class="cls-1" d="M735.77,304.09c-22.5,5.4-57.07,13.5-86.47,20.25a41.13,41.13,0,0,0-31.75,40.07c0,19.31,0,41.92,0,52.36,35.38-8.55,70.75-16.76,106.14-25.29v104a40.21,40.21,0,0,1-30.87,39.11c-44.8,10.69-126,30-157.89,37.55A42.91,42.91,0,0,0,501.15,614v51.08l273.63-64.51A40.5,40.5,0,0,0,806,561c0-66.47-.11-217.54-.11-273.65C782.61,292.93,759,298.6,735.77,304.09Z"/><path class="cls-1" d="M899.06,741.62H825.55a13.51,13.51,0,0,0-13.46,13.5v129.7h0v10.5a13.5,13.5,0,0,0,13.5,13.51H899a13.5,13.5,0,0,0,13.5-13.51v-10.5H835.67V765.63h76.89V755.12A13.51,13.51,0,0,0,899.06,741.62Z"/><path class="cls-1" d="M297.45,813.22H252.61a13.49,13.49,0,0,0-13.5,13.5v10.51h47.81v48h-95.6V765.27H310.89l-.14-10.71a13.5,13.5,0,0,0-13.5-13.28H180.94a13.51,13.51,0,0,0-13.5,13.51V895.73a13.5,13.5,0,0,0,13.5,13.5H297.52a13.49,13.49,0,0,0,13.5-13.5V826.65A13.5,13.5,0,0,0,297.45,813.22Z"/><path class="cls-1" d="M775.71,741.28H731.09a13.5,13.5,0,0,0-13.5,13.5V755l.18,10.31h47.41V885.15H683.05a13.5,13.5,0,0,0-13.5,13.51v10.5H775.68a13.5,13.5,0,0,0,13.51-13.5V754.76A13.51,13.51,0,0,0,775.71,741.28Z"/><path class="cls-1" d="M464.45,741.28H347.94a13.51,13.51,0,0,0-13.5,13.51v140.9a13.51,13.51,0,0,0,13.5,13.5h10.45V765.59H454V909.12h10.41a13.5,13.5,0,0,0,13.5-13.5V754.69A13.5,13.5,0,0,0,464.45,741.28Z"/><rect class="cls-1" x="859.68" y="813.22" width="52.83" height="23.99"/><path class="cls-1" d="M631.88,740.88l-10.44,0V868.44L525.77,740.92H515.33a13.5,13.5,0,0,0-13.5,13.5V895.71a13.5,13.5,0,0,0,13.5,13.5h10.44V781.43l95.67,127.51v.18h10.44a13.5,13.5,0,0,0,13.5-13.5V754.38A13.49,13.49,0,0,0,631.88,740.88Z"/></svg>